HIERARCHY
ROOT RootJoint
{
    OFFSET   0.000000   0.000000   0.000000
    CHANNELS 6 Xposition Yposition Zposition Xrotation Yrotation Zrotation
    JOINT pelvis_lowerback
    {
        OFFSET   0.000000   0.093605   0.000000
        CHANNELS 3 Xrotation Yrotation Zrotation
        JOINT lowerback_torso
        {
            OFFSET   0.000000   0.100000   0.000000
            CHANNELS 3 Xrotation Yrotation Zrotation
            JOINT torso_head
            {
                OFFSET   0.000000   0.282350   0.000000
                CHANNELS 3 Xrotation Yrotation Zrotation
                End Site
                {
                    OFFSET   0.000000   0.192650   0.000000
                }
            }
            JOINT rTorso_Clavicle
            {
                OFFSET  -0.001000   0.157500   0.000000
                CHANNELS 3 Xrotation Yrotation Zrotation
                JOINT rShoulder
                {
                    OFFSET  -0.117647   0.000000   0.000000
                    CHANNELS 3 Xrotation Yrotation Zrotation
                    JOINT rElbow
                    {
                        OFFSET  -0.245000   0.000000   0.000000
                        CHANNELS 3 Xrotation Yrotation Zrotation
                        JOINT rWrist
                        {
                            OFFSET  -0.240000   0.000000   0.000000
                            CHANNELS 3 Xrotation Yrotation Zrotation
                            End Site
                            {
                                OFFSET  -0.116353  -0.002500   0.000000
                            }
                        }
                    }
                }
            }
            JOINT lTorso_Clavicle
            {
                OFFSET   0.001000   0.157500   0.000000
                CHANNELS 3 Xrotation Yrotation Zrotation
                JOINT lShoulder
                {
                    OFFSET   0.117647   0.000000   0.000000
                    CHANNELS 3 Xrotation Yrotation Zrotation
                    JOINT lElbow
                    {
                        OFFSET   0.245000   0.000000   0.000000
                        CHANNELS 3 Xrotation Yrotation Zrotation
                        JOINT lWrist
                        {
                            OFFSET   0.240000   0.000000   0.000000
                            CHANNELS 3 Xrotation Yrotation Zrotation
                            End Site
                            {
                                OFFSET   0.116353  -0.002500   0.000000
                            }
                        }
                    }
                }
            }
        }
    }
    JOINT rHip
    {
        OFFSET  -0.100000  -0.051395   0.000000
        CHANNELS 3 Xrotation Yrotation Zrotation
        JOINT rKnee
        {
            OFFSET   0.000000  -0.410000   0.000000
            CHANNELS 3 Xrotation Yrotation Zrotation
            JOINT rAnkle
            {
                OFFSET   0.000000  -0.390000   0.000000
                CHANNELS 3 Xrotation Yrotation Zrotation
                JOINT rToeJoint
                {
                    OFFSET   0.000000  -0.050000   0.130000
                    CHANNELS 3 Xrotation Yrotation Zrotation
                    End Site
                    {
                        OFFSET  -0.010000   0.002000   0.060000
                    }
                }
            }
        }
    }
    JOINT lHip
    {
        OFFSET   0.100000  -0.051395   0.000000
        CHANNELS 3 Xrotation Yrotation Zrotation
        JOINT lKnee
        {
            OFFSET   0.000000  -0.410000   0.000000
            CHANNELS 3 Xrotation Yrotation Zrotation
            JOINT lAnkle
            {
                OFFSET   0.000000  -0.390000   0.000000
                CHANNELS 3 Xrotation Yrotation Zrotation
                JOINT lToeJoint
                {
                    OFFSET   0.000000  -0.050000   0.130000
                    CHANNELS 3 Xrotation Yrotation Zrotation
                    End Site
                    {
                        OFFSET   0.010000   0.002000   0.060000
                    }
                }
            }
        }
    }
}
MOTION
Frames: 17
Frame Time:   0.008333
 -2.463781   0.923549   4.022651   0.462762  -7.245898   3.762266   0.693015   2.378693  -2.161754  -4.039565  -1.348968  -1.114518  -2.311949  -0.983427  -1.639430 -12.202836  -0.746946 -25.778888 -43.116407   2.294986   0.104330   0.000787  65.436047  -0.000940   1.885490   9.803387 -18.635348 -11.094177  -1.648049  29.568476 -42.391245  -2.605019  -2.448545   0.000507 -61.564151   0.001810   1.195855 -10.190966  20.649836   4.315342  -2.088061  -8.154813  -0.000000  -0.000000  -0.000000  -4.029807  -9.426588   2.323799  -0.797519   0.000015  -0.000005  -1.962941   3.531491   6.883457  14.742112  -0.000045  -0.000027   4.340245   6.685899  -2.898584 -24.900324   0.000113   0.000053
 -2.464218   0.923624   4.022746   0.413966  -7.257083   3.794474   0.720930   2.431369  -2.173973  -4.004673  -1.347961  -1.180744  -2.299948  -1.044689  -1.657726 -12.231800  -0.657278 -25.861897 -43.237638   2.251900   0.194172   0.001415  65.175485  -0.001823   1.857416   9.873018 -18.600132 -11.122155  -1.701387  29.541774 -42.588751  -2.565718  -2.550052   0.000788 -61.401837   0.002092   1.134120 -10.209811  20.658123   4.379362  -2.064971  -8.168495  -0.000000  -0.000000  -0.000000  -4.044681  -9.444691   2.326190  -0.781642   0.000008  -0.000004  -1.910289   3.531936   6.873674  14.741518  -0.000036  -0.000022   4.478255   6.674762  -2.942116 -25.102250   0.000091   0.000050
 -2.464652   0.923702   4.022809   0.367446  -7.262852   3.827539   0.748968   2.482234  -2.190155  -3.970565  -1.346720  -1.250529  -2.285059  -1.102871  -1.677472 -12.265075  -0.570544 -25.954673 -43.357415   2.211594   0.270070   0.001946  64.919565  -0.002503   1.805363   9.866658 -18.593251 -11.155363  -1.753335  29.530070 -42.779972  -2.532930  -2.636417   0.001004 -61.249196   0.002255   1.068380 -10.215253  20.704181   4.439225  -2.045553  -8.182317  -0.000000  -0.000000  -0.000000  -4.057626  -9.464210   2.326902  -0.766617   0.000003  -0.000003  -1.861361   3.530488   6.862973  14.736537  -0.000027  -0.000018   4.618217   6.661142  -2.981746 -25.300061   0.000077   0.000047
 -2.465079   0.923777   4.022847   0.323166  -7.266277   3.858450   0.775473   2.530871  -2.208577  -3.939248  -1.344581  -1.319477  -2.269688  -1.157129  -1.696734 -12.298651  -0.488814 -26.050349 -43.471709   2.176805   0.335914   0.002318  64.679736  -0.002943   1.749550   9.842594 -18.599915 -11.189581  -1.801565  29.527170 -42.960885  -2.504662  -2.711769   0.001146 -61.107229   0.002315   1.005369 -10.220271  20.764009   4.494974  -2.028243  -8.193526  -0.000000  -0.000000  -0.000000  -4.068445  -9.483386   2.327297  -0.752849  -0.000001  -0.000003  -1.816354   3.527924   6.854371  14.730468  -0.000020  -0.000014   4.753660   6.647434  -3.017608 -25.487989   0.000070   0.000045
 -2.465498   0.923849   4.022861   0.280361  -7.268373   3.886502   0.799811   2.577216  -2.228422  -3.910782  -1.341595  -1.386506  -2.254699  -1.207732  -1.715021 -12.330978  -0.411582 -26.145558 -43.579676   2.146991   0.394425   0.002548  64.456398  -0.003192   1.695819   9.818570 -18.613145 -11.223318  -1.846312  29.529298 -43.131036  -2.479704  -2.778919   0.001227 -60.975224   0.002300   0.945966 -10.227334  20.828750   4.547486  -2.012523  -8.201792  -0.000000  -0.000000  -0.000000  -4.077255  -9.501747   2.327750  -0.740226  -0.000004  -0.000002  -1.774430   3.524630   6.848343  14.724287  -0.000015  -0.000012   4.882855   6.634157  -3.050175 -25.664778   0.000066   0.000043
 -2.465905   0.923917   4.022854   0.238541  -7.269534   3.911641   0.821807   2.621277  -2.249260  -3.885001  -1.337915  -1.451319  -2.240463  -1.254937  -1.732255 -12.361466  -0.338540 -26.238359 -43.681177   2.121252   0.447265   0.002666  64.248600  -0.003298   1.645263   9.798213 -18.629638 -11.255887  -1.887866  29.534192 -43.290603  -2.457218  -2.839634   0.001261 -60.852370   0.002235   0.889921 -10.236182  20.894911   4.597296  -1.998172  -8.207365  -0.000000  -0.000000  -0.000000  -4.084155  -9.519173   2.328342  -0.728648  -0.000006  -0.000002  -1.735083   3.520798   6.844717  14.718406  -0.000011  -0.000010   5.005391   6.621417  -3.079820 -25.830344   0.000064   0.000041
 -2.466297   0.923982   4.022825   0.197403  -7.269974   3.933987   0.841489   2.663090  -2.270806  -3.861706  -1.333696  -1.513824  -2.227114  -1.298976  -1.748460 -12.389955  -0.269546 -26.327634 -43.776351   2.098770   0.495481   0.002698  64.055213  -0.003301   1.597812   9.781621 -18.647695 -11.286989  -1.926433  29.540472 -43.439990  -2.436604  -2.895058   0.001258 -60.737917   0.002136   0.836839 -10.246136  20.960823   4.644710  -1.985041  -8.210617  -0.000000  -0.000000  -0.000000  -4.089204  -9.535646   2.329070  -0.718028  -0.000007  -0.000001  -1.697996   3.516549   6.843177  14.713005  -0.000007  -0.000008   5.121240   6.609220  -3.106854 -25.984863   0.000063   0.000039
 -2.466648   0.924045   4.022846   0.127662  -7.246087   3.958726   0.889924   2.695779  -2.294999  -3.836724  -1.333238  -1.591973  -2.195063  -1.353485  -1.756431 -12.425328  -0.196094 -26.436004 -43.916923   2.070983   0.554601   0.003510  63.708297  -0.004209   1.571771   9.840960 -18.655089 -11.338109  -1.962115  29.558061 -43.675315  -2.437140  -2.975368   0.001401 -60.627632   0.002222   0.768620 -10.255920  20.993614   4.730590  -1.972969  -8.219738  -0.000000  -0.000000  -0.000000  -4.105705  -9.579587   2.311694  -0.665412  -0.000009  -0.000001  -1.636338   3.500213   6.835439  14.714258  -0.000006  -0.000006   5.210483   6.575345  -3.134030 -26.030884   0.000050   0.000035
 -2.466959   0.924100   4.022911   0.061025  -7.222530   3.982135   0.932150   2.729938  -2.319333  -3.815146  -1.331124  -1.669106  -2.161472  -1.404547  -1.765564 -12.463235  -0.127952 -26.544501 -44.052184   2.041176   0.604667   0.004136  63.372495  -0.004869   1.524731   9.832142 -18.676328 -11.393007  -1.994590  29.582028 -43.900541  -2.439196  -3.043775   0.001499 -60.525221   0.002245   0.700907 -10.264788  21.058068   4.815553  -1.962418  -8.229931  -0.000000  -0.000000  -0.000000  -4.124556  -9.621966   2.294123  -0.616607  -0.000009  -0.000001  -1.575631   3.476890   6.828105  14.717782  -0.000006  -0.000005   5.304583   6.534484  -3.155639 -26.140344   0.000039   0.000052
 -2.467229   0.924145   4.023013  -0.001128  -7.200654   4.004112   0.967299   2.763970  -2.344082  -3.799249  -1.327428  -1.742827  -2.129148  -1.452111  -1.774755 -12.500976  -0.065504 -26.649187 -44.179967   2.012934   0.648460   0.004539  63.057562  -0.005265   1.473456   9.805068 -18.704861 -11.447976  -2.022793  29.609156 -44.112784  -2.441272  -3.103195   0.001554 -60.429791   0.002217   0.636420 -10.274204  21.134135   4.897572  -1.952964  -8.241115  -0.000000  -0.000000  -0.000000  -4.145025  -9.661636   2.277157  -0.571873  -0.000008  -0.000001  -1.517005   3.453600   6.820150  14.723191  -0.000005  -0.000003   5.391334   6.494323  -3.176436 -26.258674   0.000029   0.000070
 -2.467458   0.924182   4.023148  -0.059179  -7.180022   4.024164   0.995741   2.797138  -2.368646  -3.788686  -1.322692  -1.812748  -2.098781  -1.496471  -1.783600 -12.537499  -0.007895 -26.748964 -44.300071   1.986665   0.687554   0.004755  62.763466  -0.005450   1.423093   9.775419 -18.737140 -11.501735  -2.047470  29.637352 -44.312082  -2.443009  -3.155761   0.001571 -60.340732   0.002154   0.574947 -10.283758  21.214624   4.976739  -1.944684  -8.252731  -0.000000  -0.000000  -0.000000  -4.166787  -9.698882   2.260905  -0.530876  -0.000006  -0.000001  -1.460353   3.431411   6.811773  14.729908  -0.000005  -0.000002   5.470915   6.456040  -3.196190 -26.387328   0.000018   0.000085
 -2.467648   0.924210   4.023310  -0.113537  -7.160299   4.042037   1.018168   2.829167  -2.392710  -3.782737  -1.317284  -1.878879  -2.070527  -1.537858  -1.791977 -12.572417   0.045415 -26.843374 -44.412698   1.962237   0.722878   0.004824  62.489061  -0.005475   1.374802   9.746929 -18.771371 -11.553652  -2.069233  29.665430 -44.498899  -2.444286  -3.202845   0.001558 -60.257565   0.002064   0.516203 -10.293117  21.296685   5.053140  -1.937588  -8.264466  -0.000000  -0.000000  -0.000000  -4.189498  -9.733971   2.245414  -0.493302  -0.000004  -0.000000  -1.405613   3.410514   6.803176  14.737624  -0.000005  -0.000001   5.543672   6.419847  -3.214905 -26.526780   0.000007   0.000097
 -2.467798   0.924229   4.023492  -0.164520  -7.141319   4.057638   1.035340   2.859937  -2.416146  -3.780681  -1.311445  -1.941352  -2.044349  -1.576473  -1.799863 -12.605612   0.094783 -26.932260 -44.518184   1.939418   0.755039   0.004781  62.233054  -0.005381   1.328726   9.720264 -18.806566 -11.603428  -2.088508  29.692727 -44.673831  -2.445059  -3.245365   0.001520 -60.179868   0.001958   0.459974 -10.302094  21.378869   5.126764  -1.931607  -8.276175  -0.000000  -0.000000  -0.000000  -4.212817  -9.767089   2.230688  -0.458866  -0.000002  -0.000000  -1.352779   3.390909   6.794476  14.746099  -0.000005  -0.000001   5.609986   6.385724  -3.232635 -26.676794  -0.000005   0.000107
 -2.467909   0.924236   4.023658  -0.197125  -7.117287   4.065964   1.040359   2.879655  -2.424942  -3.784417  -1.300485  -2.009678  -1.990450  -1.615915  -1.803107 -12.614734   0.132386 -27.019608 -44.654155   1.910556   0.797065   0.005024  61.890314  -0.005641   1.311157   9.752549 -18.866624 -11.649668  -2.082002  29.698190 -44.887553  -2.446880  -3.320630   0.001390 -60.131315   0.001778   0.410762 -10.321089  21.481792   5.179956  -1.928009  -8.278520  -0.000000  -0.000000  -0.000000  -4.236737  -9.800696   2.200577  -0.396668   0.000009  -0.000000  -1.310777   3.352128   6.792401  14.741898  -0.000004  -0.000000   5.640773   6.360286  -3.248178 -26.729697  -0.000009   0.000100
 -2.467987   0.924235   4.023813  -0.223753  -7.092497   4.070785   1.046161   2.896502  -2.432246  -3.788480  -1.291013  -2.075593  -1.937802  -1.652863  -1.805877 -12.626096   0.163156 -27.095327 -44.781788   1.874830   0.836468   0.005060  61.561753  -0.005679   1.280413   9.741214 -18.929933 -11.695317  -2.071398  29.691823 -45.087130  -2.441490  -3.393731   0.001257 -60.086086   0.001605   0.364668 -10.345016  21.596891   5.225675  -1.925229  -8.278545  -0.000000  -0.000000  -0.000000  -4.258773  -9.833353   2.172531  -0.339333   0.000018  -0.000000  -1.272200   3.314594   6.792349  14.731171  -0.000002   0.000001   5.667250   6.336254  -3.262935 -26.793570  -0.000014   0.000095
 -2.468031   0.924228   4.023960  -0.246632  -7.067964   4.072720   1.052897   2.911164  -2.439840  -3.791905  -1.283157  -2.138335  -1.887914  -1.687358  -1.808360 -12.638414   0.188302 -27.160680 -44.900826   1.836224   0.873736   0.004931  61.252666  -0.005536   1.245006   9.712857 -18.991823 -11.738490  -2.058712  29.678897 -45.272596  -2.431395  -3.463798   0.001130 -60.042512   0.001444   0.318822 -10.363753  21.709216   5.266437  -1.923007  -8.277303  -0.000000  -0.000000  -0.000000  -4.279261  -9.864597   2.146610  -0.286776   0.000023  -0.000000  -1.236673   3.279522   6.793392  14.718304  -0.000000   0.000002   5.690142   6.313995  -3.276863 -26.870744  -0.000021   0.000093
 -2.468042   0.924215   4.024103  -0.266644  -7.044403   4.072136   1.060301   2.924022  -2.448108  -3.794476  -1.276595  -2.198015  -1.840950  -1.719561  -1.810663 -12.650780   0.209492 -27.217748 -45.011673   1.796769   0.909128   0.004692  60.962951  -0.005272   1.208401   9.677949 -19.050951 -11.778777  -2.045236  29.662099 -45.444953  -2.418586  -3.530640   0.001010 -60.000756   0.001297   0.272981 -10.376800  21.815522   5.303279  -1.921065  -8.275371  -0.000000  -0.000000  -0.000000  -4.298497  -9.894132   2.122210  -0.288557   0.000018  -0.000000  -1.203764   3.246909   6.795061  14.704900   0.000001   0.000002   5.709742   6.293458  -3.290006 -26.961644  -0.000028   0.000092
